<mxfile host="app.diagrams.net" agent="Mozilla/5.0 (Windows NT 10.0; Win64; x64) AppleWebKit/537.36 (KHTML, like Gecko) Chrome/128.0.0.0 Safari/537.36" version="24.7.14">
  <diagram name="Page-1" id="ma8u84As4GNfBqGpcYRG">
    <mxGraphModel>
      <root>
        <mxCell id="0" />
        <mxCell id="1" parent="0" />
        <mxCell id="2" value="Start" style="whiteSpace=wrap;strokeWidth=2;" vertex="1" parent="1">
          <mxGeometry x="8" y="346" width="95" height="49" as="geometry" />
        </mxCell>
        <mxCell id="3" value="Get user input" style="whiteSpace=wrap;strokeWidth=2;" vertex="1" parent="1">
          <mxGeometry x="153" y="346" width="163" height="49" as="geometry" />
        </mxCell>
        <mxCell id="4" value="Input valid?" style="rhombus;strokeWidth=2;whiteSpace=wrap;" vertex="1" parent="1">
          <mxGeometry x="390" y="304" width="131" height="131" as="geometry" />
        </mxCell>
        <mxCell id="5" value="Process data" style="whiteSpace=wrap;strokeWidth=2;" vertex="1" parent="1">
          <mxGeometry x="598" y="346" width="149" height="49" as="geometry" />
        </mxCell>
        <mxCell id="6" value="Display results" style="whiteSpace=wrap;strokeWidth=2;" vertex="1" parent="1">
          <mxGeometry x="798" y="436" width="163" height="49" as="geometry" />
        </mxCell>
        <mxCell id="7" value="Any feedback?" style="rhombus;strokeWidth=2;whiteSpace=wrap;" vertex="1" parent="1">
          <mxGeometry x="1011" y="8" width="152" height="152" as="geometry" />
        </mxCell>
        <mxCell id="8" value="Process feedback" style="whiteSpace=wrap;strokeWidth=2;" vertex="1" parent="1">
          <mxGeometry x="1240" y="115" width="184" height="49" as="geometry" />
        </mxCell>
        <mxCell id="9" value="Get user input" style="whiteSpace=wrap;strokeWidth=2;" vertex="1" parent="1">
          <mxGeometry x="1251" y="235" width="163" height="49" as="geometry" />
        </mxCell>
        <mxCell id="10" value="Input valid?" style="rhombus;strokeWidth=2;whiteSpace=wrap;" vertex="1" parent="1">
          <mxGeometry x="1528" y="194" width="131" height="131" as="geometry" />
        </mxCell>
        <mxCell id="11" value="Process data" style="whiteSpace=wrap;strokeWidth=2;" vertex="1" parent="1">
          <mxGeometry x="1763" y="381" width="149" height="49" as="geometry" />
        </mxCell>
        <mxCell id="12" value="Any feedback?" style="rhombus;strokeWidth=2;whiteSpace=wrap;" vertex="1" parent="1">
          <mxGeometry x="1256" y="385" width="152" height="152" as="geometry" />
        </mxCell>
        <mxCell id="13" value="Process feedback" style="whiteSpace=wrap;strokeWidth=2;" vertex="1" parent="1">
          <mxGeometry x="1502" y="381" width="184" height="49" as="geometry" />
        </mxCell>
        <mxCell id="14" value="End" style="rhombus;strokeWidth=2;whiteSpace=wrap;" vertex="1" parent="1">
          <mxGeometry x="1556" y="479" width="75" height="75" as="geometry" />
        </mxCell>
        <mxCell id="15" value="" style="curved=1;startArrow=none;endArrow=block;exitX=1;exitY=0.49;entryX=0;entryY=0.49;" edge="1" parent="1" source="2" target="3">
          <mxGeometry relative="1" as="geometry">
            <Array as="points" />
          </mxGeometry>
        </mxCell>
        <mxCell id="16" value="" style="curved=1;startArrow=none;endArrow=block;exitX=1;exitY=0.27;entryX=0;entryY=0.43;" edge="1" parent="1" source="3" target="4">
          <mxGeometry relative="1" as="geometry">
            <Array as="points">
              <mxPoint x="353" y="354" />
            </Array>
          </mxGeometry>
        </mxCell>
        <mxCell id="17" value="No" style="curved=1;startArrow=none;endArrow=block;exitX=0;exitY=0.58;entryX=1;entryY=0.71;" edge="1" parent="1" source="4" target="3">
          <mxGeometry relative="1" as="geometry">
            <Array as="points">
              <mxPoint x="353" y="386" />
            </Array>
          </mxGeometry>
        </mxCell>
        <mxCell id="18" value="Yes" style="curved=1;startArrow=none;endArrow=block;exitX=1;exitY=0.5;entryX=0;entryY=0.49;" edge="1" parent="1" source="4" target="5">
          <mxGeometry relative="1" as="geometry">
            <Array as="points" />
          </mxGeometry>
        </mxCell>
        <mxCell id="19" value="" style="curved=1;startArrow=none;endArrow=block;exitX=0.68;exitY=0.99;entryX=0;entryY=0.51;" edge="1" parent="1" source="5" target="6">
          <mxGeometry relative="1" as="geometry">
            <Array as="points">
              <mxPoint x="773" y="461" />
            </Array>
          </mxGeometry>
        </mxCell>
        <mxCell id="20" value="" style="curved=1;startArrow=none;endArrow=block;exitX=0.54;exitY=0.01;entryX=0;entryY=0.5;" edge="1" parent="1" source="6" target="7">
          <mxGeometry relative="1" as="geometry">
            <Array as="points">
              <mxPoint x="986" y="84" />
            </Array>
          </mxGeometry>
        </mxCell>
        <mxCell id="21" value="Yes" style="curved=1;startArrow=none;endArrow=block;exitX=1;exitY=0.5;entryX=0.19;entryY=0;" edge="1" parent="1" source="7" target="8">
          <mxGeometry relative="1" as="geometry">
            <Array as="points">
              <mxPoint x="1202" y="84" />
            </Array>
          </mxGeometry>
        </mxCell>
        <mxCell id="22" value="" style="curved=1;startArrow=none;endArrow=block;exitX=0.19;exitY=0.99;entryX=0.6;entryY=-0.01;" edge="1" parent="1" source="8" target="5">
          <mxGeometry relative="1" as="geometry">
            <Array as="points">
              <mxPoint x="1202" y="195" />
              <mxPoint x="773" y="195" />
            </Array>
          </mxGeometry>
        </mxCell>
        <mxCell id="23" value="No" style="curved=1;startArrow=none;endArrow=block;exitX=0.83;exitY=1;entryX=0;entryY=0.51;" edge="1" parent="1" source="7" target="9">
          <mxGeometry relative="1" as="geometry">
            <Array as="points">
              <mxPoint x="1202" y="260" />
            </Array>
          </mxGeometry>
        </mxCell>
        <mxCell id="24" value="" style="curved=1;startArrow=none;endArrow=block;exitX=1;exitY=0.31;entryX=0;entryY=0.44;" edge="1" parent="1" source="9" target="10">
          <mxGeometry relative="1" as="geometry">
            <Array as="points">
              <mxPoint x="1463" y="244" />
            </Array>
          </mxGeometry>
        </mxCell>
        <mxCell id="25" value="No" style="curved=1;startArrow=none;endArrow=block;exitX=0;exitY=0.71;entryX=0.86;entryY=1;" edge="1" parent="1" source="10" target="9">
          <mxGeometry relative="1" as="geometry">
            <Array as="points">
              <mxPoint x="1463" y="314" />
            </Array>
          </mxGeometry>
        </mxCell>
        <mxCell id="26" value="Yes" style="curved=1;startArrow=none;endArrow=block;exitX=1;exitY=0.5;entryX=0.37;entryY=-0.01;" edge="1" parent="1" source="10" target="11">
          <mxGeometry relative="1" as="geometry">
            <Array as="points">
              <mxPoint x="1724" y="260" />
            </Array>
          </mxGeometry>
        </mxCell>
        <mxCell id="27" value="" style="curved=1;startArrow=none;endArrow=block;exitX=0.41;exitY=0.98;entryX=0.61;entryY=1;" edge="1" parent="1" source="11" target="6">
          <mxGeometry relative="1" as="geometry">
            <Array as="points">
              <mxPoint x="1724" y="608" />
              <mxPoint x="986" y="608" />
            </Array>
          </mxGeometry>
        </mxCell>
        <mxCell id="28" value="" style="curved=1;startArrow=none;endArrow=block;exitX=1;exitY=0.51;entryX=0;entryY=0.5;" edge="1" parent="1" source="6" target="12">
          <mxGeometry relative="1" as="geometry">
            <Array as="points" />
          </mxGeometry>
        </mxCell>
        <mxCell id="29" value="Yes" style="curved=1;startArrow=none;endArrow=block;exitX=1;exitY=0.28;entryX=0;entryY=0.49;" edge="1" parent="1" source="12" target="13">
          <mxGeometry relative="1" as="geometry">
            <Array as="points">
              <mxPoint x="1463" y="405" />
            </Array>
          </mxGeometry>
        </mxCell>
        <mxCell id="30" value="" style="curved=1;startArrow=none;endArrow=block;exitX=1;exitY=0.49;entryX=0;entryY=0.49;" edge="1" parent="1" source="13" target="11">
          <mxGeometry relative="1" as="geometry">
            <Array as="points" />
          </mxGeometry>
        </mxCell>
        <mxCell id="31" value="No" style="curved=1;startArrow=none;endArrow=block;exitX=1;exitY=0.71;entryX=0;entryY=0.5;" edge="1" parent="1" source="12" target="14">
          <mxGeometry relative="1" as="geometry">
            <Array as="points">
              <mxPoint x="1463" y="517" />
            </Array>
          </mxGeometry>
        </mxCell>
      </root>
    </mxGraphModel>
  </diagram>
</mxfile>
